<?xml version="1.0" standalone="no"?>
<!DOCTYPE svg PUBLIC "-//W3C//DTD SVG 20010904//EN"
 "http://www.w3.org/TR/2001/REC-SVG-20010904/DTD/svg10.dtd">
<svg version="1.0" xmlns="http://www.w3.org/2000/svg"
 width="1174.000000pt" height="165.000000pt" viewBox="0 0 1174.000000 165.000000"
 preserveAspectRatio="xMidYMid meet">
<metadata>
Created by potrace 1.16, written by Peter Selinger 2001-2019
</metadata>
<g transform="translate(0.000000,165.000000) scale(0.100000,-0.100000)"
fill="#000000" stroke="none">
<path d="M4654 1640 c-40 -16 -64 -59 -64 -115 0 -62 23 -98 75 -115 116 -38
215 73 160 180 -27 51 -109 75 -171 50z"/>
<path d="M8680 1326 c-126 -34 -243 -132 -301 -251 l-34 -70 0 -495 0 -495 94
-3 c69 -2 97 1 103 10 4 7 8 113 8 235 l0 222 56 -26 c30 -14 81 -27 113 -30
l57 -5 115 -202 115 -201 104 -3 c57 -1 108 2 113 7 6 6 -32 83 -101 208 -61
109 -114 205 -117 215 -5 12 8 26 49 53 108 71 178 183 199 314 27 175 -60
365 -213 463 -96 62 -249 85 -360 54z m205 -220 c133 -62 191 -211 129 -334
-82 -164 -301 -188 -411 -44 -76 100 -68 227 21 320 74 79 170 101 261 58z"/>
<path d="M9858 1321 c-166 -53 -297 -208 -316 -372 -4 -35 -6 -261 -4 -501 l4
-438 98 0 97 0 7 38 c3 20 6 126 6 234 l0 197 56 -26 c30 -14 81 -27 112 -30
l57 -5 85 -151 c47 -82 100 -174 118 -203 l34 -54 104 0 c93 0 104 2 104 18 0
15 -54 117 -201 379 l-29 53 42 21 c61 31 142 118 177 191 124 254 -10 565
-280 649 -78 24 -194 24 -271 0z m231 -216 c49 -25 100 -75 124 -119 33 -64
31 -166 -6 -229 -35 -59 -92 -101 -158 -117 -197 -48 -361 152 -275 336 59
128 204 187 315 129z"/>
<path d="M557 1298 c-8 -18 -105 -238 -217 -488 -274 -617 -340 -768 -340
-785 0 -12 21 -15 115 -15 l115 0 14 32 c178 412 359 825 365 830 4 4 23 -29
42 -75 l36 -82 -46 -5 c-44 -5 -46 -6 -53 -45 -4 -22 -5 -64 -1 -92 l5 -53 87
0 86 0 105 -252 105 -253 113 -3 114 -3 -7 23 c-9 32 -251 634 -398 993 l-124
300 -51 3 c-50 3 -52 2 -65 -30z"/>
<path d="M1470 1315 c-17 -21 -28 -1236 -11 -1277 10 -28 12 -28 100 -28 75 0
90 3 97 18 4 9 10 259 12 555 l4 537 274 0 274 0 0 -502 c0 -277 3 -527 6
-555 l7 -53 83 0 c45 0 89 3 98 6 14 6 16 72 16 648 0 486 -3 645 -12 654 -9
9 -128 12 -474 12 -400 0 -463 -2 -474 -15z"/>
<path d="M3176 1278 c-106 -239 -499 -1126 -520 -1175 -40 -96 -44 -93 88 -93
l114 0 43 98 c23 53 107 245 185 426 79 180 145 331 148 334 9 8 12 2 50 -81
l35 -77 -44 0 c-54 0 -65 -16 -65 -92 0 -98 0 -98 99 -98 l86 0 74 -183 c41
-100 89 -215 107 -254 l33 -73 105 0 c99 0 106 1 106 20 0 19 -174 458 -403
1015 l-115 280 -51 3 -51 3 -24 -53z"/>
<path d="M4615 1312 c-102 -43 -156 -92 -202 -182 l-28 -55 -5 -375 c-5 -400
-5 -395 -58 -452 -36 -39 -81 -45 -130 -18 -55 31 -82 83 -82 156 0 107 2 104
-111 104 l-98 0 -7 -36 c-9 -50 4 -178 23 -228 51 -130 166 -210 323 -223 171
-14 313 101 335 274 4 26 10 209 13 406 l7 358 42 40 c40 37 46 39 103 39 34
0 70 -5 82 -11 30 -16 48 -71 48 -151 0 -117 1 -118 80 -118 37 0 82 3 100 6
l32 7 -4 126 c-3 104 -8 135 -26 176 -29 63 -83 120 -144 151 -41 21 -60 24
-150 23 -74 0 -114 -5 -143 -17z"/>
<path d="M5877 1323 c-4 -3 -7 -300 -7 -660 l0 -653 333 0 333 0 51 26 c63 31
117 89 152 163 24 52 26 66 26 186 0 113 -3 138 -24 188 -33 84 -95 156 -166
192 l-58 30 -214 4 -213 3 0 160 0 159 143 -6 c203 -10 243 -34 254 -153 l6
-62 102 0 c98 0 103 1 108 22 10 35 -11 155 -34 200 -50 98 -166 179 -286 198
-65 11 -496 14 -506 3z m622 -764 c52 -37 71 -80 71 -159 0 -74 -27 -132 -73
-160 -29 -18 -51 -20 -219 -20 l-188 0 0 185 0 185 183 0 184 0 42 -31z"/>
<path d="M7461 1288 c-10 -24 -121 -272 -246 -553 -268 -603 -305 -689 -305
-709 0 -14 18 -16 114 -16 l113 0 26 58 c14 31 98 223 186 426 88 203 163 371
166 374 8 8 12 2 49 -81 l35 -77 -44 0 c-54 0 -65 -16 -65 -92 0 -98 0 -98 99
-98 l86 0 74 -183 c41 -100 89 -215 107 -254 l33 -73 109 0 c109 0 110 0 105
23 -7 25 -238 602 -406 1012 l-115 280 -51 3 -51 3 -19 -43z"/>
<path d="M11130 1311 c-145 -46 -283 -156 -347 -276 -58 -111 -78 -195 -77
-335 0 -148 17 -227 75 -346 70 -143 196 -256 349 -312 73 -26 81 -27 329 -30
202 -3 256 -1 262 10 12 18 11 159 -1 178 -8 12 -51 16 -247 20 -236 5 -238 6
-296 34 -78 38 -158 119 -195 198 -55 116 -60 108 65 108 59 0 113 4 119 8 17
11 27 87 19 148 l-6 54 -121 0 -121 0 6 38 c11 65 74 177 125 223 90 80 104
83 394 89 141 3 260 9 264 13 13 13 17 139 5 170 l-11 27 -267 -1 c-228 0
-276 -3 -323 -18z"/>
<path d="M1048 790 c-35 -27 -52 -72 -45 -121 6 -47 29 -76 74 -95 42 -18 67
-18 109 2 43 21 64 59 64 120 0 39 -5 51 -34 80 -30 30 -40 34 -89 34 -39 0
-61 -6 -79 -20z"/>
<path d="M3669 782 c-63 -56 -47 -171 28 -207 83 -40 183 19 183 106 0 83 -45
129 -127 129 -43 0 -58 -5 -84 -28z"/>
<path d="M7949 782 c-63 -56 -47 -171 28 -207 83 -40 183 19 183 106 0 83 -45
129 -127 129 -43 0 -58 -5 -84 -28z"/>
<path d="M11527 770 c-59 -47 -72 -114 -34 -171 60 -89 200 -69 227 32 23 83
-25 149 -112 157 -44 3 -58 0 -81 -18z"/>
</g>
</svg>
